<svg xmlns="http://www.w3.org/2000/svg" width="900" height="500">
<text x="450" y="30" text-anchor="middle" font-size="22">Overtone Alignment Between Voices</text>

<text x="150" y="70" text-anchor="middle">Bass</text>
<text x="350" y="70" text-anchor="middle">Lead</text>
<text x="550" y="70" text-anchor="middle">Baritone</text>
<text x="750" y="70" text-anchor="middle">Tenor</text>
<line x1="130" y1="420" x2="170" y2="420" stroke="black"/><line x1="330" y1="420" x2="370" y2="420" stroke="black"/><line x1="530" y1="420" x2="570" y2="420" stroke="black"/><line x1="730" y1="420" x2="770" y2="420" stroke="black"/><line x1="130" y1="360" x2="170" y2="360" stroke="black"/><line x1="330" y1="360" x2="370" y2="360" stroke="black"/><line x1="530" y1="360" x2="570" y2="360" stroke="black"/><line x1="730" y1="360" x2="770" y2="360" stroke="black"/><line x1="130" y1="300" x2="170" y2="300" stroke="black"/><line x1="330" y1="300" x2="370" y2="300" stroke="black"/><line x1="530" y1="300" x2="570" y2="300" stroke="black"/><line x1="730" y1="300" x2="770" y2="300" stroke="black"/><line x1="130" y1="240" x2="170" y2="240" stroke="black"/><line x1="330" y1="240" x2="370" y2="240" stroke="black"/><line x1="530" y1="240" x2="570" y2="240" stroke="black"/><line x1="730" y1="240" x2="770" y2="240" stroke="black"/><line x1="130" y1="180" x2="170" y2="180" stroke="black"/><line x1="330" y1="180" x2="370" y2="180" stroke="black"/><line x1="530" y1="180" x2="570" y2="180" stroke="black"/><line x1="730" y1="180" x2="770" y2="180" stroke="black"/><line x1="100" y1="300" x2="800" y2="300" stroke="red" stroke-width="3"/><text x="450" y="280" text-anchor="middle" font-size="14">Aligned Harmonic Reinforcement</text></svg>